<?xml version="1.0" standalone="no"?>
<!DOCTYPE svg PUBLIC "-//W3C//DTD SVG 20010904//EN"
 "http://www.w3.org/TR/2001/REC-SVG-20010904/DTD/svg10.dtd">
<svg version="1.0" xmlns="http://www.w3.org/2000/svg"
 width="350.000000pt" height="350.000000pt" viewBox="0 0 350.000000 350.000000"
 preserveAspectRatio="xMidYMid meet">
<metadata>
Created by potrace 1.11, written by Peter Selinger 2001-2013
</metadata>
<g transform="translate(0.000000,350.000000) scale(0.100000,-0.100000)"
fill="#000000" stroke="none">
<path d="M1663 3307 c-17 -7 -35 -15 -39 -19 -4 -5 -16 -8 -26 -8 -10 0 -18
-5 -18 -12 0 -6 -3 -8 -6 -5 -4 4 -19 -2 -33 -12 -14 -10 -43 -24 -63 -30 -21
-7 -40 -17 -44 -22 -3 -5 -10 -7 -15 -3 -5 3 -17 0 -25 -7 -9 -7 -22 -14 -29
-15 -20 -3 -109 -48 -113 -56 -2 -5 -8 -8 -14 -8 -5 0 -29 -13 -53 -30 -24
-16 -46 -30 -50 -30 -3 0 -22 -11 -43 -23 -85 -54 -97 -61 -107 -63 -5 -1 -46
-19 -90 -40 -44 -21 -83 -37 -87 -36 -5 1 -8 -3 -8 -8 0 -5 -3 -9 -7 -8 -8 2
-84 -32 -93 -41 -6 -7 -30 -24 -163 -114 -54 -37 -94 -67 -90 -67 10 0 -35
-27 -59 -36 -10 -3 -18 -10 -18 -14 0 -4 -16 -15 -35 -26 -19 -10 -35 -22 -35
-27 0 -4 -4 -5 -10 -2 -5 3 -10 1 -10 -4 0 -6 -6 -11 -14 -11 -8 0 -17 -7 -20
-16 -3 -8 -10 -13 -14 -10 -5 3 -14 -4 -22 -14 -8 -10 -17 -17 -22 -14 -4 3
-8 0 -8 -5 0 -6 -5 -11 -11 -11 -6 0 -17 -6 -24 -12 -32 -29 -45 -38 -52 -38
-4 0 -24 -14 -43 -31 -32 -28 -33 -30 -10 -24 14 3 32 8 40 10 8 2 16 4 18 5
1 2 10 3 20 4 9 1 23 5 30 9 6 5 12 6 12 3 0 -3 10 -2 23 3 31 12 103 23 95
15 -6 -5 8 -27 39 -59 7 -8 13 -16 13 -20 0 -7 39 -62 63 -90 24 -26 57 -90
57 -110 0 -8 5 -15 10 -15 6 0 10 -8 10 -18 0 -16 19 -84 37 -132 3 -8 7 -19
9 -25 1 -5 7 -23 12 -40 5 -16 8 -38 6 -47 -1 -10 1 -18 4 -18 4 0 7 -21 8
-48 1 -68 12 -161 20 -174 5 -7 3 -8 -6 -3 -8 5 -11 4 -7 -2 8 -12 15 -56 21
-130 2 -29 7 -57 10 -62 4 -5 3 -12 -1 -14 -5 -3 -8 -42 -8 -86 0 -45 -3 -81
-6 -81 -3 0 -5 -16 -4 -35 1 -20 -2 -38 -6 -41 -5 -2 -4 -15 1 -28 5 -13 6
-27 2 -30 -3 -4 -7 -28 -9 -54 -3 -52 -10 -104 -14 -112 -1 -3 -3 -9 -4 -15
-2 -5 -4 -13 -5 -17 -1 -5 -4 -12 -5 -18 -1 -5 -3 -11 -5 -12 -1 -2 -3 -10 -5
-18 -2 -8 -6 -25 -9 -37 -3 -13 -8 -32 -11 -43 -4 -19 -20 -72 -33 -110 -3 -8
-6 -18 -7 -22 -2 -5 -4 -10 -5 -13 -1 -3 -3 -13 -5 -22 -1 -10 -5 -27 -9 -38
-22 -58 -36 -96 -37 -103 -1 -4 -6 -18 -11 -32 -6 -14 -11 -29 -12 -35 -4 -16
-28 -99 -34 -115 -9 -27 -11 -74 -3 -85 4 -5 18 -38 31 -71 l24 -61 55 19 c31
11 61 23 66 26 6 4 17 7 25 9 8 1 16 7 18 13 2 5 8 7 13 4 6 -3 15 -1 22 5 7
5 25 12 40 15 15 2 31 7 36 10 5 4 13 2 16 -4 5 -8 11 -8 19 -1 7 6 16 8 19 4
8 -7 52 -11 174 -15 46 -2 83 -7 83 -12 0 -5 2 -7 5 -4 3 3 43 -3 88 -13 81
-19 117 -28 147 -34 8 -2 15 -4 15 -5 0 -1 9 -3 20 -5 20 -3 40 -7 107 -24 20
-5 39 -6 42 -3 4 3 6 1 6 -4 0 -6 19 -11 42 -13 23 -1 47 -6 53 -11 5 -4 27
-7 47 -6 21 2 35 -1 32 -5 -2 -4 47 -7 111 -6 63 1 115 5 115 8 0 10 45 5 52
-6 5 -7 8 -6 8 1 0 5 10 10 23 10 12 1 48 13 80 27 53 24 57 28 47 47 -6 11
-8 25 -5 30 3 6 2 10 -3 10 -5 0 -13 15 -17 33 -4 17 -9 37 -11 42 -2 6 -6 23
-9 39 -5 26 -26 56 -39 56 -3 0 -17 -11 -32 -25 -19 -17 -31 -22 -39 -15 -6 5
-15 7 -18 3 -9 -9 -77 -12 -77 -4 0 4 -7 8 -15 8 -8 0 -15 -3 -15 -6 0 -4 -20
-7 -45 -7 -25 0 -45 4 -45 8 0 5 -18 8 -40 8 -22 0 -40 3 -40 8 0 4 -10 7 -22
8 -13 0 -36 3 -53 7 -16 3 -43 9 -59 12 -16 3 -33 8 -37 10 -4 3 -24 7 -45 11
-22 3 -45 11 -51 16 -7 6 -13 8 -13 4 0 -3 -11 -1 -25 4 -27 10 -71 21 -92 22
-7 1 -13 4 -13 7 0 3 -16 7 -36 9 -19 1 -44 7 -55 12 -14 8 -19 7 -19 -2 0
-10 -3 -10 -9 1 -5 8 -16 11 -24 8 -8 -3 -18 -3 -22 1 -4 4 -10 7 -13 8 -4 0
-27 4 -52 8 -25 4 -108 8 -185 9 l-140 2 2 34 c1 19 6 37 10 40 4 3 9 15 10
26 1 18 9 53 13 65 1 3 2 8 1 13 -1 4 5 23 13 42 8 19 13 35 11 35 -3 0 0 12
6 28 11 26 18 61 21 92 0 8 4 17 7 20 8 6 47 162 43 172 -1 5 2 8 6 8 4 0 7
24 7 52 -1 29 2 65 6 81 5 17 4 27 -3 27 -6 0 -6 6 2 15 9 11 9 15 1 15 -8 0
-9 6 -3 18 10 19 9 249 -1 302 -9 44 -15 88 -23 170 -3 36 -11 73 -16 84 -8
14 -7 17 3 11 8 -6 10 -4 5 4 -5 7 -10 27 -12 44 -3 18 -7 43 -11 57 -3 14 -6
28 -5 33 1 4 -3 7 -9 7 -6 0 -9 6 -6 14 3 7 1 18 -3 22 -5 5 -11 18 -13 29 -4
19 -7 28 -24 73 -3 9 -7 20 -8 25 -2 4 -4 9 -5 12 -3 5 -3 6 -15 50 -4 17 -11
35 -15 40 -3 6 -24 53 -45 105 -21 52 -42 100 -47 107 -9 12 16 25 57 29 90 9
142 17 162 25 15 5 23 5 23 -2 0 -6 6 -7 13 -2 6 4 19 9 27 10 46 7 129 16
153 16 15 0 27 3 27 6 0 4 10 7 23 8 12 1 49 4 82 7 33 3 104 8 157 10 54 3
102 7 108 11 5 3 10 2 10 -3 0 -5 7 -9 15 -9 8 0 15 3 15 6 0 3 33 7 73 7 170
3 257 10 257 19 0 7 3 7 8 0 9 -13 42 -15 42 -3 0 6 6 6 14 -1 10 -8 16 -9 21
-1 3 6 12 7 18 3 13 -8 24 -9 187 -14 58 -2 108 -8 112 -14 5 -7 8 -7 8 0 0
10 48 13 66 4 5 -3 48 -5 96 -4 49 0 88 -2 88 -5 0 -3 39 -5 88 -5 48 0 91 -1
95 -3 4 -2 51 -6 105 -8 90 -5 147 -10 147 -14 0 -1 7 -3 15 -5 56 -11 88 -17
110 -20 14 -2 27 -4 30 -6 3 -1 10 -3 15 -4 6 -1 26 -5 45 -9 19 -4 44 -9 55
-11 11 -2 20 -4 20 -5 0 -1 14 -4 30 -5 17 -2 41 -6 55 -9 14 -3 50 -9 80 -12
30 -3 69 -8 85 -10 17 -2 48 -7 70 -10 22 -2 46 -7 53 -9 26 -9 10 13 -23 31
-19 10 -35 22 -35 26 0 5 -5 8 -11 8 -6 0 -17 6 -24 13 -29 25 -40 33 -57 40
-10 3 -18 11 -18 17 0 5 -7 10 -15 10 -8 0 -15 5 -15 12 0 6 -3 8 -6 5 -4 -4
-14 1 -23 11 -17 18 -45 37 -71 49 -8 4 -17 9 -20 13 -10 13 -99 70 -108 70
-6 0 -12 4 -14 9 -3 9 -136 91 -148 91 -4 0 -13 7 -20 15 -7 9 -15 13 -18 11
-3 -3 -17 3 -32 14 -16 11 -35 20 -43 20 -8 0 -18 7 -21 16 -4 9 -9 14 -13 11
-3 -4 -18 2 -32 12 -14 10 -36 22 -48 25 -13 4 -23 11 -23 15 0 4 -6 8 -12 8
-7 0 -33 9 -58 20 -169 77 -193 87 -202 85 -5 -1 -8 3 -8 9 0 5 -4 7 -10 4 -5
-3 -10 -1 -10 6 0 7 -3 9 -6 6 -4 -3 -16 -1 -28 5 -11 7 -23 13 -26 13 -3 0
-27 11 -55 24 -27 12 -55 24 -61 25 -7 1 -18 7 -26 14 -8 6 -18 9 -21 5 -4 -3
-7 -2 -7 3 0 5 -10 11 -22 11 -13 1 -24 7 -26 13 -2 5 -10 10 -18 10 -8 0 -38
13 -67 29 -88 49 -174 91 -186 91 -6 0 -11 4 -11 8 0 5 -6 9 -12 9 -7 0 -24 3
-38 6 -14 3 -39 1 -57 -6z"/>
<path d="M2100 2192 c-33 -5 -37 -10 -44 -52 -3 -19 -35 -186 -72 -370 -36
-184 -68 -346 -70 -360 -3 -14 -14 -68 -24 -120 -11 -52 -21 -108 -24 -125 -3
-16 -14 -73 -25 -125 -26 -127 -23 -130 121 -130 l103 0 53 272 c29 150 53
279 52 286 0 8 16 12 48 13 124 2 414 0 417 -3 2 -2 -13 -91 -35 -198 -21
-107 -42 -211 -45 -230 -3 -19 -10 -49 -14 -67 -7 -25 -5 -37 9 -53 15 -18 29
-20 121 -20 l104 0 38 187 c21 104 40 199 43 213 5 33 17 92 19 105 16 70 30
146 45 225 6 30 12 64 14 75 8 36 58 288 62 309 2 12 9 45 15 75 10 49 9 55
-10 74 -18 18 -32 20 -117 19 -53 0 -99 -3 -101 -6 -3 -3 -10 -27 -15 -53 -5
-26 -12 -59 -14 -73 -3 -14 -19 -95 -35 -180 -16 -85 -33 -163 -37 -173 -7
-17 -24 -18 -231 -18 -123 0 -225 2 -228 4 -2 3 12 84 31 182 20 97 38 189 41
203 2 15 7 39 10 53 10 43 -21 61 -107 62 -40 1 -84 0 -98 -1z"/>
<path d="M976 2088 c-14 -73 -14 -84 -1 -105 13 -19 24 -23 63 -23 l48 0 -22
-113 c-12 -62 -25 -133 -29 -158 -3 -24 -10 -60 -15 -79 -5 -19 -11 -53 -14
-75 -4 -32 -33 -188 -61 -330 -2 -11 -7 -41 -11 -67 l-7 -48 -66 0 -67 0 -16
-82 c-14 -72 -14 -85 -1 -104 14 -22 14 -22 341 -20 370 3 400 8 518 84 204
132 261 421 110 559 l-41 38 37 33 c138 124 157 375 36 477 -90 76 -186 93
-523 94 l-262 0 -17 -81z m579 -142 c48 -20 68 -56 62 -108 -8 -60 -22 -93
-54 -126 -52 -54 -80 -62 -216 -66 l-88 -3 5 26 c7 31 14 73 22 121 3 19 12
63 19 98 7 34 10 62 6 63 -3 0 2 3 11 7 29 12 197 3 233 -12z m-32 -529 c116
-76 71 -268 -74 -311 -47 -14 -274 -24 -285 -13 -3 3 4 56 16 119 12 62 26
139 32 171 l11 59 136 -4 c110 -2 142 -6 164 -21z"/>
</g>
</svg>
